# MagicaVoxel @ Ephtracy

# group
o 

# material
mtllib Road_R.mtl
usemtl palette

# normals
vn -1 0 0
vn 1 0 0
vn 0 0 1
vn 0 0 -1
vn 0 -1 0
vn 0 1 0

# texcoords
vt 0.958984 0.5
vt 0.994141 0.5

# verts
v -5 0 5
v -5 0 -5
v -5 0.1 1.2
v -5 0.1 0.0999999
v -5 0.1 -0.1
v -5 0.1 -1.2
v -5 0.2 5
v -5 0.2 1.2
v -5 0.2 0.0999999
v -5 0.2 -0.1
v -5 0.2 -1.2
v -5 0.2 -5
v 5 0 5
v 5 0 -5
v 5 0.2 5
v 5 0.2 -5
v -5 0 5
v -5 0.2 5
v 5 0 5
v 5 0.2 5
v -5 0 -5
v -5 0.2 -5
v -1.2 0.1 -5
v -1.2 0.2 -5
v -0.0999999 0.1 -5
v -0.0999999 0.2 -5
v 0.1 0.1 -5
v 0.1 0.2 -5
v 1.2 0.1 -5
v 1.2 0.2 -5
v 5 0 -5
v 5 0.2 -5
v -5 0 5
v 5 0 5
v -5 0 -5
v 5 0 -5
v -5 0.2 5
v 5 0.2 5
v -5 0.2 1.2
v 1.2 0.2 1.2
v -5 0.2 0.0999999
v 0.1 0.2 0.0999999
v -5 0.2 -0.1
v -0.0999999 0.2 -0.1
v -5 0.2 -1.2
v -1.2 0.2 -1.2
v -5 0.2 -5
v -1.2 0.2 -5
v -0.0999999 0.2 -5
v 0.1 0.2 -5
v 1.2 0.2 -5
v 5 0.2 -5

# faces
f 3/1/1 2/1/1 1/1/1
f 4/1/1 2/1/1 3/1/1
f 5/1/1 2/1/1 4/1/1
f 6/1/1 2/1/1 5/1/1
f 7/1/1 3/1/1 1/1/1
f 8/2/1 4/2/1 3/2/1
f 8/1/1 3/1/1 7/1/1
f 9/1/1 5/1/1 4/1/1
f 9/2/1 4/2/1 8/2/1
f 10/2/1 6/2/1 5/2/1
f 10/1/1 5/1/1 9/1/1
f 11/1/1 2/1/1 6/1/1
f 11/2/1 6/2/1 10/2/1
f 12/1/1 2/1/1 11/1/1
f 13/1/2 14/1/2 15/1/2
f 15/1/2 14/1/2 16/1/2
f 19/1/3 18/1/3 17/1/3
f 20/1/3 18/1/3 19/1/3
f 21/1/4 22/1/4 23/1/4
f 23/1/4 22/1/4 24/1/4
f 21/1/4 23/1/4 25/1/4
f 23/2/4 24/2/4 25/2/4
f 25/2/4 24/2/4 26/2/4
f 21/1/4 25/1/4 27/1/4
f 25/1/4 26/1/4 27/1/4
f 27/1/4 26/1/4 28/1/4
f 21/1/4 27/1/4 29/1/4
f 27/2/4 28/2/4 29/2/4
f 29/2/4 28/2/4 30/2/4
f 21/1/4 29/1/4 31/1/4
f 29/1/4 30/1/4 31/1/4
f 31/1/4 30/1/4 32/1/4
f 35/1/5 34/1/5 33/1/5
f 36/1/5 34/1/5 35/1/5
f 37/1/6 38/1/6 39/1/6
f 39/1/6 38/1/6 40/1/6
f 39/2/6 40/2/6 41/2/6
f 41/2/6 40/2/6 42/2/6
f 41/1/6 42/1/6 43/1/6
f 43/1/6 42/1/6 44/1/6
f 43/2/6 44/2/6 45/2/6
f 45/2/6 44/2/6 46/2/6
f 45/1/6 46/1/6 47/1/6
f 46/2/6 44/2/6 48/2/6
f 47/1/6 46/1/6 48/1/6
f 44/1/6 42/1/6 49/1/6
f 48/2/6 44/2/6 49/2/6
f 42/2/6 40/2/6 50/2/6
f 49/1/6 42/1/6 50/1/6
f 40/1/6 38/1/6 51/1/6
f 50/2/6 40/2/6 51/2/6
f 51/1/6 38/1/6 52/1/6
